<svg id="Слой_1" data-name="Слой 1" xmlns="http://www.w3.org/2000/svg" xmlns:xlink="http://www.w3.org/1999/xlink" viewBox="0 0 2045.67 743.88"><defs><style>.cls-1{fill:url(#Безымянный_градиент);}</style><linearGradient id="Безымянный_градиент" x1="2056.6" y1="1024" x2="10.93" y2="1024" gradientTransform="matrix(1, 0, 0, -1, 0, 2048)" gradientUnits="userSpaceOnUse"><stop offset="0" stop-color="#0cf"/><stop offset="1" stop-color="#fc0"/></linearGradient></defs><path class="cls-1" d="M2046.84,674.38v699.24a22.32,22.32,0,0,1-22.32,22.32H1759.21a22.32,22.32,0,0,1-22.32-22.32v-327.3a22.32,22.32,0,0,0-22.32-22.32h-79.34a22.32,22.32,0,0,0-22.32,22.32v327.3a22.32,22.32,0,0,1-22.32,22.32H1325.28a22.32,22.32,0,0,1-22.32-22.32V674.38a22.32,22.32,0,0,1,22.32-22.32h699.24A22.32,22.32,0,0,1,2046.84,674.38Zm-1611.75,0v699.24a22.32,22.32,0,0,0,22.32,22.32H722.72A22.32,22.32,0,0,0,745,1373.62v-327.3A22.32,22.32,0,0,1,767.36,1024H846.7A22.32,22.32,0,0,1,869,1046.32v327.3a22.32,22.32,0,0,0,22.32,22.32h265.31a22.32,22.32,0,0,0,22.32-22.32V674.38a22.32,22.32,0,0,0-22.32-22.32H457.41A22.32,22.32,0,0,0,435.09,674.38Zm-139-22.32H16.17a15,15,0,0,0-15,15v713.88a15,15,0,0,0,15,15h280a15,15,0,0,0,15-15V667.06A15,15,0,0,0,296.11,652.06Z" transform="translate(-1.17 -652.06)"/></svg>